<?xml version="1.0" encoding="utf-8"?>
<!-- Generator: Adobe Illustrator 27.7.0, SVG Export Plug-In . SVG Version: 6.00 Build 0)  -->
<svg version="1.1" id="Layer_1" xmlns="http://www.w3.org/2000/svg" xmlns:xlink="http://www.w3.org/1999/xlink" x="0px" y="0px"
	 viewBox="0 0 553 206.7" style="enable-background:new 0 0 553 206.7;" xml:space="preserve">
<style type="text/css">
	.st0{fill-rule:evenodd;clip-rule:evenodd;fill:#896B3B;}
	.st1{fill:#896B3B;}
</style>
<g>
	<g>
		<g>
			<path class="st0" d="M144.6,30.5c0.2-0.4,0.3-0.8,0.2-1.2l-0.1-0.1h-0.1c-3,5.2-6.4,6.1-10.6,6.5c-2.1,0.1-2.6,0.7-7.1,4
				c-7.1,5.1-15.7,0.2-15.7,0.2c9.1,2.4,16.8-1.6,21-10.4v-0.1h-0.1c-2.5,1.1-8.2,5.5-21.4,0.2c-4.8-2.1-9.9-3.4-12.4-1.8
				c-2.3,1.4-4,3.7-4.7,6.3v0.1h0.1c2.2-0.9,4.7-2.5,7.7,1.6c1.2,1.9,2.5,3.8,3.9,5.6c3.7,4.2,9.1,6.4,14.7,6.1
				C133.5,46.4,142.7,34.5,144.6,30.5z"/>
			<path class="st0" d="M25.7,95.6c3.1-0.6,10-2.4,13.2-2.3c24.9,0.8,27.3-17.5,27.5-22.2c0.2-4.3,2.9-8.5,5.5-9.9
				c0.2-0.1,0.3-0.2-0.2-0.2c-2.1,0.1-4.2,0.3-6.2,0.7c-2.9,0.7-6.3,3.4-9.8,10.2c-3.5,6.8-15,12.7-18.6,13.6l0,0l0,0
				c9,1.5,18.1-1.4,24.6-7.9c0,0-2.5,8.2-13.2,10.1c0,0-8.5,0.5-14.6,3.9c-2.9,1.4-6,2.5-9.2,3.4C24.7,95,24.3,95.8,25.7,95.6z"/>
			<path class="st0" d="M94.4,146.4c0,0-2.6-11.7-9-10c0,0-0.3-5.1-4.7-7c-1.6-1.4-2.8-3.2-3.4-5.2c-0.5-1.5-2-2.4-3.5-2
				c-2.6,0.6-0.9,4.6-0.9,4.6c0.7,1.4,1.1,2.9,1.1,4.4c-1.4,2.4-1.9,5.2-1.4,7.9c0,0-6.6,3.2-2.7,12.6c3.5-2.9,5.3-5.7,5.6-8.2
				c2.8,2.7,3.5,6.9,1.7,10.4c-3.1,5.9-9.2,9.7-18.3,3.4s-12.3-11.1-19.7-12.6s-14.2,0.6-18.8-1.8c0,0-1.1,3.1,4.5,4.3
				c0,0-3.1,2,0.9,2.4s5.1-0.6,5.1-0.6s-5.5,5.7-0.1,19.8c5.4,14,25.6,27.2,31.4,27.3l0,0c0,0,0,0,0-0.1c-1.1-1-10.1-9.3-12.5-16.5
				c6.9,3.8,15,4.7,22.5,2.4c0.4,1.6,0.3,3.3-0.3,4.8c-1.5,4.2-4.4,13-0.6,13.7l0,0c0.6-2.7,1.8-5.2,3.3-7.5c-0.5,1.2-1,2.5-1.6,3.8
				c-0.6,1.4-0.3,3.1,0.7,4.3h0.1c12.6-16.9,17.2-38.4,12.7-58.9C86.4,141.8,91,146.7,94.4,146.4L94.4,146.4L94.4,146.4z
				 M47.3,151.7L47.3,151.7c1.2-1.2,3.6,0.6,3.6,0.6c1.4,1.2,2.2,2.7,1.4,3.5c-0.8,0.9-2.4,0.4-3.7-0.3
				C47.3,154.9,46,152.9,47.3,151.7L47.3,151.7L47.3,151.7z M55.2,161.8L55.2,161.8c-1.4,1.2-3.7,0.2-3.7,0.2s-3.7-1.1-2.1-3.1
				c0.9-1.1,2.5-1.4,3.8-0.6C53.2,158.3,56.6,160.6,55.2,161.8L55.2,161.8z M64.9,168.3L64.9,168.3c-0.5,1.6-3,1.8-4.9,1.5
				c-2-0.3-4.8-2.1-3.8-4.4c1-2.3,5.1-1.4,5.1-1.4C63.6,164.4,65.5,166.7,64.9,168.3L64.9,168.3z M68,170.5L68,170.5
				c0,0-2.2,0.6-1.9-0.9c0.1-0.8,0.9-1.4,1.7-1.4c0,0,2.4,0.1,2.1,1.1C69.5,170.3,68,170.6,68,170.5L68,170.5L68,170.5z M72.1,166.9
				L72.1,166.9c-1.4,0.6-3.8,0.7-4.1-1.1c-0.3-1.8,2.6-2.7,2.6-2.7c1.8-0.4,3.6-0.3,3.9,0.9C74.9,165.2,73.5,166.3,72.1,166.9
				L72.1,166.9z M78,160.3L78,160.3c0,0-0.9,1.7-1.7,0.7c-0.5-0.6-0.4-1.4,0.1-1.9c0,0,1.5-1.5,1.9-0.7
				C78.7,159.2,77.9,160.3,78,160.3L78,160.3z"/>
			<path class="st0" d="M207,92.9c0,0-23.4,7.6-25,47.9c-0.4,9.2-2.5,10.8-6,14.4c-1.4,10-7.6,22.2-14.7,28.5
				c-6.6,5.8-23.6,14.6-29.9,1.9c-1.7-3.6-1.8-7.8-0.4-11.5c-1.3-1.5-3.2-5.5,1.5-12.4c0,0,7,1.6,10.9-7.6c0,0,6.7-1.5,8.3-6.3l0,0
				l0,0c-0.9,0.6-5.3,3.7-8.3,2.6c-2.5-0.9-5.1-1.1-7.7-0.6c-1.7-0.5-4.5-1.9-5.8-6.5l0,0l0,0c-0.3,0.4-1.8,2.5-1.4,7.5l0,0
				c0,0,1.3,0.5,4.4,0c-1.8,1-3.4,2.3-4.6,3.8c-5.5,6.6-7.1,13.2-7.2,15.7c-0.6,4.9,0.2,9.9,2.3,14.3c-0.2,2-0.5,9.8,5.9,18.3
				c0.2,0.2,0.5,0.4,0.3-0.2c-1.1-3.7-1.5-7.5-1.4-11.4c4.7,4.6,10.3,8.2,16.4,10.6c0.4,0.2,0.7,0.2,0.2-0.3
				c-1.8-1.7-3.1-3.8-3.7-6.2C170.7,194.8,217.8,150.7,207,92.9z"/>
			<path class="st0" d="M135.8,187.1c9.2,6.4,31.1-3,36.7-29.9c0-0.2-0.1-0.2-0.2-0.1c-9.4,13.1-27.9,4.3-37.5,14.2
				C131.1,175,131,183.8,135.8,187.1z"/>
			<path class="st0" d="M151.1,55.9c-0.2,1.1-0.3,2.2-0.3,3.4c0-0.1,0,0.6,0,1.3c0,0.1,0.1,0.3,0.2,0.3c0.1,0.1,0.3,0,0.4-0.1
				c0.3-0.4,0.5-1,0.5-1.5c0-1.4,0.1-2.7,0.3-4c2-3.9,6.8-6.8,6.8-6.8c11.4-8,11.4-21.8,10.9-27.2c-0.1-0.9-0.2-0.5-0.2-0.1
				c-0.2,2.4-2.5,6.8-10.7,14.2C148.8,44.5,150.2,52.9,151.1,55.9z"/>
			<path class="st0" d="M27,62.8c3.4,5.6,7.4,5.8,8.5,5.8c0.4,0.2,0.8,0.3,1.3,0.4c0,0,0.4,0,0.5-0.2s-0.4-0.3-0.4-0.3
				c-0.8-0.1-1.5-0.5-2.1-1c-1.2-2.2-4-19.2-16.4-13.7l-0.1,0.1c0,0,0,0.1,0.1,0.1C23,55.1,23.1,56.4,27,62.8z"/>
			<path class="st0" d="M10.9,68.2c6.4-0.2,8.4,2.2,15.7,9.1c4.6,4.3,8.7,5,11.1,4.8c1,0.2,2.1,0.3,3.1,0.2c0.6-0.1,0.7-0.3,0.7-0.5
				c-0.1-0.8-0.1-1.6,0-2.5c1.4-2.6,6.4-3.3,13.2-10.9s0.9-15.5-0.4-17h-0.1l-0.1,0.1c0.3,6.7-1.4,7.3-8.6,14.9
				c-5.1,5.3-5.2,10-4.8,12.3c-0.1,0.9-0.2,1.8-0.1,2.6c-0.9,0.1-1.7-0.2-2.4-0.8c-1.9-1.9-3.3-6.4-9.7-12
				C21,62,12.4,67.2,10.9,68.2z"/>
			<path class="st0" d="M149.4,39.6c-0.3,0.5-0.6,0.9-0.9,1.4c-1,1.5-0.9,2.7-0.6,3c0.4,0.2,0.8-0.4,0.8-0.4c1.6-2.2,2.9-4.5,4-6.9
				c2.9-2.5,5.3-5.4,7.3-8.7c4.4-7.3,2.9-13.2,2.4-14.6h-0.1h-0.1c-1,3.7-5.1,4.5-8.5,8.3C149.5,26.6,147.9,33.3,149.4,39.6z"/>
			<path class="st0" d="M129.6,27.7c1,0.5,2,0.9,3,1.2c0.2,0,0.3,0,0.4-0.2c0.1-0.1,0.2-0.3,0.1-0.4c0,0,0,0-0.1-0.1
				c-1.1-0.2-2.1-0.6-3-1.1c-1.7-1.6-3.3-8.3-3.4-14c-0.1-3.7-1-7.4-2.6-10.8h-0.1c0,0-0.1,0-0.1,0.1c-0.6,5.7-7.9,10.2-2.5,19.9
				C123.2,25.1,126.2,27.1,129.6,27.7z"/>
			<path class="st0" d="M62.1,33.6c1,0.6,1.8,1.4,2.5,2.3c0.3,1.4,0.5,2.8,0.7,4.3c0,0.3,0.2,0.6,0.5,0.8c0.2,0.1,0.3,0.2,0.5,0.2
				c0.4,0,0.3-0.7,0.3-0.7c-0.1-1.2-0.3-2.5-0.5-3.7c0-4.7-1.1-15.8-8.6-22.1l0,0l0,0c-0.2,0.7-1.4,6.6-0.7,9.6
				C57.3,27.5,58.7,31.4,62.1,33.6z"/>
			<path class="st0" d="M41.7,59.9c0.8,1.7,2,3.2,3.6,4.3c0.3,0.2,0.6,0.1,0.8-0.2c0.2-0.3,0.1-0.6-0.2-0.8l0,0
				c-1.3-1-2.4-2.3-3.1-3.7c8.9-4.1,0.2-17.9-2.2-22.6c-1.4-2.3-1.5-5.1-0.3-7.4c0.2-0.3-0.1-0.3-0.3-0.2c-12.5,5.5-11.5,15-10,20.6
				C31,53.5,35.3,62.4,41.7,59.9z"/>
			<path class="st0" d="M114.5,104.8c-0.3,1.6-0.5,4.9-0.5,5.6l0,0l0,0c3.9-2.6,6.7-6.5,8.1-11.1c1.4-4.1,0.7-16-2.1-19.9
				c-1.3,4.9-3.1,9.6-5.4,14c-2.2,3.8-3,8.2-2.2,12.5c0,0.1,0.1,0.1,0.1,0c0.6-3.5,1.7-7,3.3-10.2c1.8-3.1,3.1-6.5,3.8-10
				c-0.4,4.5-1.6,9-3.4,13.2C115.4,100.8,114.9,102.8,114.5,104.8z"/>
			<path class="st0" d="M90.2,58.4L90.2,58.4L90.2,58.4c9.9-15.6-1.8-21.4-1.5-31.3c0-0.2,0-0.4-0.2,0c-6.8,17-2.5,20.9-0.9,31.3
				c0.2,0.9,0.3,1.9,0.3,2.9l0,0l0,0c1.9-10.5,2.7-7.8,1.1-24.4C92.5,45.9,91.4,51.4,90.2,58.4z"/>
			<path class="st0" d="M120.6,28.1c0,0,0.1,0,0.1-0.1v-0.1c-3-2.2-8.1-9-7.7-15.9c0.4-6.4,0.3-7.3,0.2-7.3c-0.1,0,0.6,0.3,0.3,7.5
				c-0.1,2.6,0.5,5.2,1.7,7.5c-0.4-1.5-0.5-3.2-0.4-4.8c0.8-8.2-1.3-13.5-2.5-14.3h-0.1c0,0,0,0,0,0.1c0.5,4.1,0.1,8.3-1.3,12.3
				C108.6,19.6,109.6,27.5,120.6,28.1z"/>
			<path class="st0" d="M24.8,79.1C14.7,67.6,8.2,81.9,4.6,82.3c-3.2,0.4,2.9,2,8.6-1c3.5-1.9,7.5-2.5,11.4-1.7l0,0v-0.1
				C17,73.8,7,82,7,82S16.7,72.5,24.8,79.1L24.8,79.1z"/>
			<path class="st0" d="M57.6,52.4c0.1-2.2-0.5-6-4.8-10.7c-8.7-9.6-6.5-16.1-6.4-16.4l0.3-0.6c0,0-2.7,6.3,6.6,16.4
				c4.3,4.4,5.2,8.2,5.3,10.7c4.8-14.4-11.2-23-11.8-28.7c0-0.1,0-0.1-0.1-0.1c0,0-0.1,0-0.1,0.1C43.7,28.5,44.2,35,48,39.9
				C54.4,47.7,54.6,46.4,57.6,52.4z"/>
			<path class="st0" d="M135.4,30.9c1.2-3.4,1-7.2-0.7-10.5c-3.4-6.6-2.1-11.1-1.3-12.9c0.3-0.6,0.3-0.6,0.1,0
				c-0.6,1.7-1.4,5.8,2,12.3c1.9,3.4,2.3,7.4,1.2,11.1c8.6-8.2-3.2-20.6-2.4-25.3V5.5h-0.1l0,0C125.9,16.6,135.6,25.1,135.4,30.9z"
				/>
			<path class="st0" d="M82.2,52.7c1.1,3.7,1.8,7.5,2,11.3c-0.3-0.3-0.6-0.7-0.9-1c-1.6-8.1-10.4-15-18.2-20.2
				c-1.7-1.3-2.9-3.2-3.3-5.4c-0.1-0.5-0.2-0.2-0.2,0.1c-1.2,8.4,1.2,18.8,8.7,21.6c5.7,2.2,10.3,4.1,12.3,4.9
				c4.7,4.7,4.3,5.8,5.3,7.5c0.1,0.1,0.2,0.2,0.3,0.1c0.1,0,0.2-0.2,0.2-0.3c-0.5-2-1.4-3.9-2.7-5.5c-0.3-4.9-1.3-9.7-2.8-14.3
				c1.4-8.3-2.4-19.2-9.7-27.1c-2.7-2.9-3.8-8.4-3.9-9.3l0,0l0,0c-4.3,7.6-1.5,21.8,4.5,27.5C76.8,45.7,79.7,49.1,82.2,52.7z"/>
			<path class="st0" d="M198,63.7c-0.1-0.1-0.2-0.1-0.2,0.1c0.4,2.6-0.6,5.2-2.6,6.8c-3.8,3.6-15,10.2-7.5,19.1l0.1,0.1
				c-0.6,1.1-1.5,2-2.5,2.7l0,0c-0.3,0.2-0.4,0.5-0.2,0.8s0.5,0.4,0.8,0.2l0,0c1.1-0.8,2.1-1.8,2.8-2.9c5.5,3.7,10.3-2.5,12.1-5.2
				C203.7,80.9,207.2,72.7,198,63.7z"/>
			<path class="st0" d="M153.7,6.1C153.7,6,153.7,6,153.7,6.1C153.6,6,153.6,6,153.7,6.1c-1.4,0.4-13.2,5.1-10.5,16.4
				c0.7,2.2,0.4,4.6-0.9,6.5C141.7,30.2,154.7,19.1,153.7,6.1z"/>
			<path class="st0" d="M150,70.1c-0.6,0.7-1.3,1.3-1.9,1.9c0,0-0.8,0.6-0.4,1.1c0.4,0.5,1.1-0.3,1.1-0.3c0.7-0.6,1.3-1.2,1.8-1.9
				c1.7,0,6.2-1,11.4-7.8c5.9-7.8,8.4-18.5,8.8-20.8c0-0.3,0-0.3-0.2-0.2c-1,0.9-4.2,3.6-5.2,4.5C163.7,48.2,150.7,55.9,150,70.1z"
				/>
			<path class="st0" d="M74.8,66.7c4.1,1.7,5.5,3.5,7.7,7.3c1.7,3,8.8,19.8,9.7,21.2c-1.2-6.8-2.9-14-2.9-14
				c-3.5-14-17.8-15.8-17.8-15.8c6.4,4.5,8.3,12.6,10.2,21.7c1.6,7.8,8.8,9.7,10.8,10.1C86.1,88.7,84,72,74.7,66.8
				C73.7,66.3,74.2,66.6,74.8,66.7z"/>
			<path class="st0" d="M14.8,128.9c3.1-0.2,6.2-0.7,9.2-1.7c2.8-1,5.3-2.4,7.6-4.2l0,0c0,0-5.9-1.4-9.3,0.7
				c-3.5,2.1-10.8,5-13.6,4.6c-0.1,0-0.6-0.1,0,0.2c3.1,1.5,18.8,7.3,23.3-5.1c-2.4,1.9-5,3.4-7.9,4.4S18,129.2,14.8,128.9z"/>
			<path class="st0" d="M98,206.7c17.9-12.5,19.5-55.1,20-57.7c0.6-2.9,2.1-16.5,26.1-18.2c0.9,0,10,0.2,14.9,5.3
				c-1.3-0.9-2.9-1-4.3-0.3l0,0l0,0c1.3,0.1,2.5,0.6,3.5,1.4c0,0-4.2,3-0.9,8.3c4,6.5,9.5,2.6,9.5,2.6c0.2,0.7,2.3,1.4,1.6,0.8
				c-0.5-0.4-0.6-1-0.5-1.5c0.5,0.6,1.1,1.1,1.4,0.8c-0.4-0.5-0.5-1.2-0.2-1.7c2-1.7,5.1-4.7,1.6-9.7c-3.9-5.5-8.2-2.7-8.2-2.7
				c-1.7-0.7-2.4-3.7-2.5-4.1l0,0h-0.1c-0.6,0.6,0.7,5,0.7,5c-0.8-0.6-1.5-1.3-2-2.2l0,0l0,0c-0.2,0.4,0,1.4,0.4,2.1
				c-2.8-2.5-6.2-4.2-9.9-5c2.9-0.8,5.7-1.8,8.4-3.1c8.3-2.3,14.5-3.6,19.8-9.6c-0.2,0.4-3.5,7.2-19.6,10.9
				c15.7,7.5,23.6-16.7,22.3-14.3c-1.3,2.5-10.5,5.9-14.9,6.8c-3.5,0.7-6.5,4.3-7.7,5.8c-11.3,5.1-33.1-0.3-39.9,18.3
				c1.7-7.1,8-13,14-17.2c18.7,2.5,30.9-12.7,31.9-14l0,0l0,0c-14.8-1.7-27.3,6.7-32.2,13.9c-4.6,2.4-8.7,5.5-12.3,9.2
				c0,0,1.4-7.8,12.8-14.2c5.1-2.5,9.8-5.7,13.9-9.6c0.7-0.3,8.3-3.8,12.2-5.1c5.3,0.7,6.8,3.2,14.1,2.6c12.6-1,16.9-12,15.4-10.7
				s-5.6,2-14.9,2.4c-4.9,0.2-9.7,1.7-13.8,4.5c-3.7,1.1-7.4,2.5-10.9,4.1c2.3-2.8,3.9-6,4.6-9.6c3.1-3.9,7.2-6.8,11.9-8.3
				c-4.5,1.8-7.9,5.5-11.2,9.5c8.9-5.3,23.1-2.9,28.3-16.4c0.2-0.4,0.3-0.8,0.3-0.8c0.4-1.2,0.2-0.8-0.3-0.3
				c-4.4,4.6-20.6-1.7-27.8,12.7c0.6-1.7,3.5-9.2,5-10.3c9-6.6,32.6-2.7,34.2-26.4c0-0.4-0.1-0.3-0.2,0c-1.4,2.2-9.6,6.8-23.6,12.6
				c-5.6,2.4-9,8.4-9.8,10c-3,4.1-5.9,11.7-7.6,16.6c-0.8,3.1-2.1,6-3.8,8.6c-8.7,12.3-26.1,14.8-29.6,25.7c-0.1-2,0-4.1,0.2-6.1
				c0.9-2.2,2.4-4,4.2-5.5c0.9-0.4,3.2-1.5,7.7-3.3c6.3-2.5,15.8-10.5,20-25.6c0.1-0.5-7.5,5.8-13.1,8.7c-5.8,3-10.4,6.7-14.2,17.9
				c-1.5,1.4-2.9,3-4.1,4.7c1.2-7.3,4.4-17.4,12.9-24.1c0.5-0.4,0.9-0.7,1.4-1.1c9.6-3.8,14-5.7,18.9-10.5
				c6.1-5.9,5.8-16.1,5.8-16.1c-15,4.5-19.7,18.1-24.7,25.5c-8.2,4.9-16.1,17.2-18.5,27.1c0,0-0.2-1-0.5-2.6
				c5.7-18,12.6-21.3,16.1-28.7c10.2-14.2,2.9-24.4,5.4-33.6c0,0-10.4,7.1-11.6,15s4.6,16.9,3.1,21c-2.5,3.3-11.2,14.1-13.5,23.4
				c-0.7-4.4-1.1-8.9-1.1-13.4c0-0.5-0.1-0.5-0.2,0c-2.3,14.8,1,21.2,0.7,42.5c-0.4-19.7-4.4-31.4-3.7-41.3
				c0.4-5.7,5.1-21.8,5.5-24.6c0.1-0.7,0.4-2.1,0.7-4.2v-0.1c11.2-13.2-4.8-29.6-8.5-33c-0.5-0.4-0.4-0.1-0.2,0.2
				c3.2,6.5-0.7,20.3,3.1,28c1.2,2.8,2.6,5.5,4.1,8.2c-0.1,0.3-0.1,0.6-0.2,0.9c-3.8,14.8-6.7,23.3-7.2,32.9
				c-1.3-2.3-2.2-4.7-2.9-7.3c0.3-2.9,1.1-5.7,2.2-8.4c1.8-4.8,6.8-11.1,3.7-20.8c-2.7-9-5.3-8.7-5.3-8.7s2.4,2-2.7,12.1
				c-5.3,10.6,1.5,31.6,4.9,35c-0.2,9.7,3.7,23.7,1.8,43.3c0.8-11.5,0.1-23-2.1-34.3c-1.1-6.6-6.8-15.9-8.9-27.6
				c-1.2-6.5-1.4-13.2-0.6-19.8c0.8-2.7,2.5-7.4,5.5-15c4-10-0.7-20.9-2-23.6c-0.2-0.5-0.3-0.2-0.3,0c0.5,4.8-2.4,11.2-7.2,21.1
				c-4.8,9.8,1.5,21,2.1,22c-0.2,3.3-0.1,6.5,0.2,9.8c0.9,12,5.6,24,5.8,25.4c0.3,2.1,15.4,51.5-13.2,85.2c3.5,0.8,7,1.4,10.5,1.6
				L98,206.7z M131,127.6L131,127.6L131,127.6z"/>
			<path class="st0" d="M124.9,61.3c-1.2,2.6-2.1,5.4-2.6,8.3c0-0.2,0,0.3,0,0.3l0.2,0.4l0.5-0.1c0.1,0,0.3-0.2,0.5-0.6
				c0.5-2.8,1.3-5.6,2.5-8.2c2.1-1.8,7.2-1.7,14.6-8c5.7-4.9,5.8-11.8,5.2-16.1c-0.1-0.8-0.6-2.7-0.9-3.6c-0.1-0.2-0.2-0.1-0.3,0
				c-3.7,6.8-5.2,6.3-12.9,12.3C125.4,50.8,124.8,58.3,124.9,61.3z"/>
			<path class="st0" d="M31.4,86.8c0.9-0.1,1.8-0.2,2.7-0.2c0,0,0.8,0,0.9-0.6c0-0.6-0.8-0.4-0.8-0.4c-0.7,0-1.4,0-2.1,0.2
				C11.9,74.6,5.7,93.4,0.3,93.4C-2.6,93.4,15.8,100.7,31.4,86.8z"/>
			<path class="st0" d="M5.2,112.9L5.2,112.9c0.6,0.2,3.2,0.6,8.8-1.3c6.1-2.1,7.1-9.7,10.4-12.1c-0.2,0-0.3,0.1-0.5,0.2
				c-5.1,2.2-5.7,3.5-9.7,7.4c-5.5,5.4-7.4,5.3-7.4,5.3s2.3-0.5,10.6-9.8c1.8-2,4.2-3.5,6.8-4.2c4.9-0.2,9.8,0.7,14.3,2.6
				c-1.9,0.2-3.8,0.8-5.5,1.8c-9.4,5-9.6,15.4-19.2,17.4l0,0l0,0c5.1,1,10.3,0.5,15.1-1.4c7.1-2.6,9.4-10.4,13.4-13.2
				c4.6-0.8,9.4,0.4,13.2,3.2c-3-0.4-6,0.2-8.6,1.7c-9.4,5-5.1,12.7-14.8,14.6l0,0l0,0c0.9,0.5,5.2,2.4,13.2-0.6
				c7.2-2.7,9.8-9.4,14.1-11.5c3.8-0.6,7.7-0.9,11.6-0.6c-3.3,2.8-6.3,6-8.7,9.6c-4.1-2.2-8,0.9-11.1,4.7c-1.5,1.9-3.7,3.1-6.1,3.1
				c0,0,0,0-0.1,0l0,0c1.6,2.5,3.4,3.1,5.1,2.9c-0.7,1.1-1.3,2.3-1.6,3.6l0,0l0,0c1.4-0.1,2.6-0.5,3.8-1.2c-0.4,1.2-0.7,2.4-0.7,3.6
				l0,0l0,0c1.4-0.5,2.7-1.3,3.7-2.4c-0.1,1.4,0,2.8,0.3,4.1l0,0l0,0c1-0.7,1.9-1.6,2.5-2.7c0.3,2.4,1.5,4.1,3.3,4.5
				c0.5,0.1,0.2-0.2,0.1-0.3c-1.6-2.3,0-3.7,1.5-6.9c1.7-4,4.3-9.6-0.5-12.7c2.8-3.8,6.3-7,10.1-9.7c6.4,0.6,17.1,2.7,22.5,9.7
				c0.5,0.8,0.9,1.6,1.1,2.6c14.5,49.7-13.4,79.2-13.4,79.2l2.6,0.5c9.4-8,24.7-39.2,14.8-77.4l0,0c-2.2-8.6-2.3-10.2-4.9-13.8
				c-1.4-4.9-2.2-8.4-4.3-11.1c-1.9-2.5-4.4-4.5-7.3-5.6c-1.1-0.8-2.4-1.8-3.6-3c0,0-0.8-7.5-5-12c-2.5-2.8-4.2-6.3-4.7-10
				c-2.5,2.5-3.9,15.8,8.4,21.4c1.1,1.1,2.2,2.1,3.5,3.1c-4.7-1.3-5.8,0.3-12.7-5.5c-0.2-0.2-0.3-0.2-0.2,0.1
				c5.7,16.1,22.4,13.5,26.3,26c-7.2-2.8-14.8-4.7-22.6-5.5c-0.1-0.5-0.3-1-0.5-1.5c2.3-10.6-9.1-19.6-11.2-21.2
				c-0.2-0.2-0.2,0.1-0.1,0.2c2.7,6.3,0,8.6,4.3,15c-1.5-0.7-4.5-1.9-4.6-1.9c-7.3-9.3-21.7-6.4-19.5-5.9
				c3.4,0.7,12.5,14.2,20.2,6.7c1.6,0.6,3.2,1.4,4.6,2.2c1.6,2.1,3.5,3.8,5.7,5.2c0.1,0.4,0.2,0.7,0.3,1c-3.5-0.2-7-0.1-10.4,0.3
				c-1.1-0.8-2.2-1.4-3.4-1.9c-0.8-1.7-6.1-5.5-12.6-5.5c-0.3-0.5-0.7-0.9-1.2-1.2c-2-2.2-10.6-6.2-19.9-4.7
				c-3.6-1.1-7.5-0.3-10.5,2C8.1,105.1,11.8,109.8,5.2,112.9"/>
			<path class="st0" d="M139.2,79.5c0.5,0.3,0.7-0.5,0.7-0.5c0.5-0.9,1-1.7,1.4-2.6c12.9-11.6,6.5-26.6,6.5-26.6
				c-0.9,4.4-3.2,5.7-7.4,12.7c-3.7,6.3-1.1,13.3-0.5,14.7c-0.2,0.5-0.5,0.9-0.8,1.4C139.1,78.5,138.8,79.2,139.2,79.5z"/>
			<path class="st0" d="M93.9,30C93.9,30,93.9,30.1,93.9,30c0.1,0.1,0.2,0.1,0.2,0.1c0.8-1,0.2-1.6,0-3.7c1.3-2.9,16.7-7.7,9.6-26.3
				h-0.1c0,0-0.1,0-0.1,0.1C99.7,13.5,90,13.7,93.3,25.5C93.4,27,93.5,28.5,93.9,30z"/>
			<path class="st0" d="M78.2,29L78.2,29c0.1,0,0.2,0,0.2-0.1s0-0.2,0-0.3c0-0.3-0.1-0.5-0.3-0.7C77.5,27,76.9,26,76.6,25
				c0.6-3.1,5.7-11.5,2.5-17.6c-2.1-4.1-2.8-4.7-3-4.9l0,0l0,0c-0.9,3.4-2,6.7-3.4,9.9c-2.3,5.2,2,11.1,3.5,12.7
				C76.6,26.5,77.3,27.9,78.2,29z"/>
			<path class="st0" d="M164.1,69.3c-0.8,1-1.5,2.1-2.1,3.3c0-0.1-0.1,0.2-0.1,0.2v0.4l0.4,0.1c0.3,0.1,0.5-0.1,0.6-0.3
				c0.6-1.2,1.3-2.4,2.2-3.5c2.2-1.1,4-2.7,8.8-3.3c4.5-0.5,10.2-0.2,15.5-7.5c4-5.5,4.4-7.9,4.4-8.8c0-0.3-0.1-0.3-0.3-0.1
				c-0.8,1-3.9,4.1-12.3,5.2C172.2,56.3,165.5,66.2,164.1,69.3z"/>
			<path class="st0" d="M82.9,35C82.9,35,82.9,35.1,82.9,35c0.1,0.1,0.2,0.1,0.2,0.1c0.6-0.9,0-1.9-0.2-3c0.6-2.7,3.7-6.7,7.7-13.7
				c3.9-6.9-0.5-14.9-1.4-16.3h-0.1c0,0-0.1,0-0.1,0.1C87.2,14.3,76.5,14,81.7,30.3C82,31.9,82.3,33.5,82.9,35z"/>
			<path class="st0" d="M173,50.4c-1,1.9-2,3.7-3.3,5.4c-0.1,0.1-0.1,0.2-0.1,0.3v0.4c0,0.1,0.1,0.2,0.2,0.2c0.1,0,0.2,0,0.3-0.1
				c1.1-1.5,2.8-4.3,3.7-5.7c3.7,2.5,7.8,0,11.1-3.3c1.5-1.7,3.8-2.5,6-2.3h0.1v-0.1c-1.2-2.5-2.9-3.3-4.5-3.2
				c0.8-0.9,1.5-2,1.9-3.1v-0.1h-0.1c-1.3,0-2.5,0.3-3.7,0.8c0.5-1.1,0.9-2.2,1.1-3.4v-0.1h-0.1c-1.4,0.3-2.6,1-3.7,1.9
				c0.2-1.3,0.3-2.6,0.1-3.9l0,0h-0.1c-1.1,0.6-2,1.4-2.7,2.4c0-2.4-1-4.2-2.7-4.6c-0.1,0-0.2,0-0.2,0.1c0,0,0,0,0,0.1
				c1.4,2.4-0.6,3.8-2.1,6.8C172.6,42,169.2,47.1,173,50.4L173,50.4z"/>
		</g>
		<g>
			<g>
				<path class="st1" d="M278.6,71.9L278.6,71.9h-15.2l0,0c2.6-2.4,4-5.8,4-9.3v-21c0-3.5-1.5-6.9-4-9.3l0,0h15.9
					c10.9,0,16.5,3.9,16.5,11.6c0,8.5-8.3,14.3-20.7,14.3c-0.4,0-0.9,0-1.2-0.1V62C274,65.9,275.7,69.5,278.6,71.9z M274,55.3
					c9.5,0.4,15.2-3.6,15.2-11c0-6.2-3.3-9.3-9.7-9.3c-1.7,0-4,0.4-5.5,1.1V55.3z"/>
				<path class="st1" d="M307.8,62.6v-21c0-3.5-1.5-6.9-4-9.3l0,0h14.6l0,0c-2.6,2.4-4,5.8-4,9.3v21c0,3.5,1.5,6.9,4,9.3l0,0h-14.6
					l0,0C306.4,69.5,307.8,66.1,307.8,62.6z"/>
				<path class="st1" d="M470.7,71.9h-15.2l0,0c2.6-2.2,3.9-5.6,3.4-8.9l-3.4-21.9l-12.9,30.8H441l-13.2-30.8l-3,21.7
					c-0.5,3.4,0.8,6.8,3.4,9.1l0,0h-12.7l0,0c2.9-2.4,4.9-5.8,5.5-9.5l3.3-21c0.5-3.4-0.7-6.8-3.3-9l0,0h10l12.5,29.1l11.9-29.1h10
					l0,0c-2.6,2.2-3.8,5.6-3.3,9l3.3,21.2C465.9,66.2,467.8,69.6,470.7,71.9L470.7,71.9z"/>
				<path class="st1" d="M553,61.5l-3.1,10.4h-27.2l0,0c2.6-2.4,4-5.8,4-9.3v-21c0-3.5-1.5-6.9-4-9.3l0,0h15.2l0,0
					c-2.9,2.4-4.6,6-4.6,9.7v26.7h2.3c8.6,0,13.3-2.1,16.6-7.2C552.2,61.5,553,61.5,553,61.5z"/>
				<path class="st1" d="M410.5,71.9h-14.1l0,0c2.4-2.3,3.2-5.8,2-8.8l-1.3-3.4h-15.6l-1.3,3.4c-1.2,3.1-0.4,6.6,2,8.9l0,0h-12.1
					l2.8-2.6c0.8-0.8,1.5-1.7,1.9-2.8L385.5,41c1.3-3,0.4-6.5-2-8.6l0,0h6.2c2,0,3.9,1.3,4.6,3.2l12.2,31.2c0.4,0.9,0.9,1.8,1.5,2.5
					L410.5,71.9z M396.1,56.7l-6.6-17.3l-6.8,17.3H396.1z"/>
				<path class="st1" d="M515.5,71.9h-14.1l0,0c2.4-2.3,3.2-5.8,2-8.8l-1.3-3.4h-15.6l-1.3,3.4c-1.2,3.1-0.4,6.6,2,8.9l0,0h-12.1
					l2.8-2.6c0.8-0.8,1.5-1.7,1.9-2.8L490.6,41c1.3-3,0.4-6.5-2-8.6l0,0h6.2c2,0,3.9,1.3,4.6,3.2l12.2,31.2c0.4,0.9,0.9,1.8,1.5,2.5
					L515.5,71.9z M501.2,56.7l-6.6-17.3l-6.8,17.3H501.2z"/>
				<path class="st1" d="M361.3,71.9c-4.3,0-6.7-1.3-8.7-4.8L346.5,55c-1.9,0.4-4.2,0.6-6.7,0.6v6.9c0,3.5,1.5,6.9,4,9.3l0,0h-14.6
					l0,0c2.6-2.4,4-5.8,4-9.3v-21c0-3.5-1.5-6.9-4-9.3l0,0h15.6c11.6,0,17.2,3.1,17.2,9.5c0,4.8-3.5,8.9-9.6,11.4l7.7,13.5
					c1.5,2.5,3.4,4.3,5.1,4.6v0.5h-3.9V71.9z M339.8,52.7c9.3,0,15.6-4,15.6-10c0-4.8-3.5-7.7-9.4-7.7c-2.3,0-4.4,0.4-6.2,1.2V52.7z
					"/>
			</g>
			<g>
				<path class="st1" d="M303.7,124.1h-14.1l0,0c2.4-2.3,3.2-5.8,2-8.8l-1.3-3.4h-15.6l-1.3,3.4c-1.2,3.1-0.4,6.6,2,8.9l0,0h-12.1
					l2.8-2.6c0.8-0.8,1.5-1.7,1.9-2.8l10.7-25.5c1.3-3,0.4-6.5-2-8.6l0,0h6.2c2,0,3.9,1.3,4.6,3.2l12.2,31.2
					c0.4,0.9,0.9,1.8,1.5,2.5L303.7,124.1z M289.3,108.9l-6.6-17.3l-6.8,17.3C275.9,108.9,289.3,108.9,289.3,108.9z"/>
				<path class="st1" d="M341.3,124.1c-4.3,0-6.7-1.3-8.7-4.8l-6.1-12.1c-1.9,0.4-4.2,0.6-6.7,0.6v6.9c0,3.5,1.5,6.9,4,9.3l0,0
					h-14.6l0,0c2.6-2.4,4-5.8,4-9.3v-21c0-3.5-1.5-6.9-4-9.3l0,0h15.6c11.6,0,17.2,3.1,17.2,9.5c0,4.8-3.5,8.9-9.6,11.4l7.7,13.5
					c1.5,2.5,3.4,4.3,5.1,4.6v0.5h-3.9V124.1z M319.8,104.9c9.3,0,15.6-4,15.6-10c0-4.8-3.5-7.7-9.4-7.7c-2.3,0-4.4,0.4-6.2,1.2
					V104.9z"/>
				<path class="st1" d="M436.2,84.5c-2.6,2.4-4,5.8-4,9.3v29.9l-0.4,0.4h-4.5l-23.8-31.8v22.1c0,3.8,1.7,7.4,4.6,9.7l0,0h-12.3h0.1
					c2.5-2.4,4-5.7,4-9.2V94.1c0-3.8-1.8-7.3-4.8-9.5l0,0h10.6l22.8,30.6V94.3c0-3.8-1.7-7.4-4.6-9.7l0,0h12.3V84.5z"/>
				<path class="st1" d="M465.4,109.6v4.8c0,3.8,1.7,7.4,4.6,9.7l0,0h-15.8l0,0c2.9-2.4,4.6-6,4.6-9.7v-4.9L448.4,92
					c-1.5-2.6-3.4-4.9-5.5-7l-0.3-0.3h14.1l0,0c-2.1,2-2.5,5.2-1,7.7L464,106l7.6-13.8c1.4-2.5,1-5.6-1-7.6l0,0h10.9l0,0
					c-2.4,2.4-4.4,5.1-6.1,8L465.4,109.6z"/>
				<path class="st1" d="M388.8,124.1h-14.1l0,0c2.4-2.3,3.2-5.8,2-8.8l-1.3-3.4h-15.6l-1.3,3.4c-1.2,3.1-0.4,6.6,2,8.9l0,0h-12.1
					l2.8-2.6c0.8-0.8,1.5-1.7,1.9-2.8l10.7-25.5c1.3-3,0.4-6.5-2-8.6l0,0h6.2c2,0,3.9,1.3,4.6,3.2l12.2,31.2
					c0.4,0.9,0.9,1.8,1.5,2.5L388.8,124.1z M374.4,108.9l-6.6-17.3l-6.8,17.3C361,108.9,374.4,108.9,374.4,108.9z"/>
				<path class="st1" d="M521.4,124.1h-14.1l0,0c2.4-2.3,3.2-5.8,2-8.8l-1.3-3.4h-15.6l-1.3,3.4c-1.2,3.1-0.4,6.6,2,8.9l0,0H481
					l2.8-2.6c0.8-0.8,1.5-1.7,1.9-2.8l10.7-25.5c1.3-3,0.4-6.5-2-8.6l0,0h6.2c2,0,3.9,1.3,4.6,3.2l12.2,31.2
					c0.4,0.9,0.9,1.8,1.5,2.5L521.4,124.1z M507,109l-6.6-17.3l-6.8,17.3H507z"/>
			</g>
		</g>
	</g>
	<g>
		<path class="st1" d="M278.1,172.2l-7.9-10h-2.7v3.2v6.7h-3v-6.7v-8.3v-6.7h6.9c4.6,0,7.3,2.4,7.3,5.9c0,2.8-1.9,5-5.1,5.6
			l8.3,10.3H278.1z M271,159.6c3,0,4.6-1.3,4.6-3.4c0-2.2-1.5-3.3-4.6-3.3h-3.5v6.7H271z"/>
		<path class="st1" d="M301.1,166h-9.4l-2.3,6.2h-3.1l2.5-6.7l5.8-15.1h3.6l5.8,15l2.6,6.8h-3.3L301.1,166z M296.3,153.7l-3.6,9.6
			h7.4L296.3,153.7L296.3,153.7z"/>
		<path class="st1" d="M313.9,165.4v-15.1h4.5l10.4,18.3h0.1V157v-6.7h3v6.7v15.1h-4.4L317,153.7h-0.1v11.7v6.7h-3V165.4z"/>
		<path class="st1" d="M341.7,165.4v-8.3v-6.7h3v6.7v8.3v6.7h-3V165.4z"/>
		<path class="st1" d="M363.9,157.1v-6.7h7.3c4.9,0,7.4,2.1,7.4,5.4c0,2.4-1.6,4.3-4.5,5v0.1c3.6,0.6,5.6,2.7,5.6,5.3
			c0,3.3-2.8,6.1-7.8,6.1h-8.1v-6.7v-8.5H363.9z M375.5,156.1c0-2-1.7-3.2-4.6-3.2h-4v6.7h3.9C374,159.7,375.5,158.5,375.5,156.1z
			 M366.9,169.6h4.1c3.5,0,5.6-1.2,5.6-3.7c0-2.4-2-3.6-5.7-3.6h-4V169.6z"/>
		<path class="st1" d="M399.9,166h-9.4l-2.3,6.2h-3.1l2.5-6.7l5.8-15.1h3.6l5.8,15l2.6,6.8h-3.3L399.9,166z M395.1,153.7l-3.6,9.6
			h7.4L395.1,153.7L395.1,153.7z"/>
		<path class="st1" d="M412,157.1v-6.7h3v6.7v6.3c0,4,2.1,6.3,5.8,6.3c3.7,0,5.8-2.3,5.8-6.3v-6.3v-6.7h3v6.7v6.2
			c0,5.8-3.2,9.2-8.9,9.2c-5.6,0-8.9-3.5-8.9-9.2v-6.2H412z"/>
		<path class="st1" d="M449.6,170c1.3,0,2.5-0.2,3.6-0.6v-2.3v-6.6h3v6.6v3.5c-2.1,1.3-4.5,2-7.1,2c-6.7,0.1-11.5-4.6-11.4-11.1
			c-0.1-6.5,5-11.6,11.9-11.5c2.7,0,4.9,0.6,6.7,1.7v2.8c-2-1.2-4.1-1.8-6.3-1.8c-5.6,0-9.2,3.7-9.2,8.8
			C440.9,166.6,444.4,170,449.6,170z"/>
	</g>
</g>
</svg>
